Coordinates
version=1
nRows=8
nColumns=63
inDegrees=yes

Units are S.I. units (second, meters, Newtons, ...)
If the header above contains a line with 'inDegrees', this indicates whether rotational values are in degrees (yes) or radians (no).

endheader
time	pelvis_tilt	pelvis_list	pelvis_rotation	pelvis_tx	pelvis_ty	pelvis_tz	hip_flexion_r	hip_adduction_r	hip_rotation_r	knee_angle_r	knee_angle_r_beta	ankle_angle_r	subtalar_angle_r	mtp_angle_r	hip_flexion_l	hip_adduction_l	hip_rotation_l	knee_angle_l	knee_angle_l_beta	ankle_angle_l	subtalar_angle_l	mtp_angle_l	L5_S1_Flex_Ext	L5_S1_Lat_Bending	L5_S1_axial_rotation	L4_L5_Flex_Ext	L4_L5_Lat_Bending	L4_L5_axial_rotation	L3_L4_Flex_Ext	L3_L4_Lat_Bending	L3_L4_axial_rotation	L2_L3_Flex_Ext	L2_L3_Lat_Bending	L2_L3_axial_rotation	L1_L2_Flex_Ext	L1_L2_Lat_Bending	L1_L2_axial_rotation	L1_T12_Flex_Ext	L1_T12_Lat_Bending	L1_T12_axial_rotation	Abs_r3	Abs_r2	Abs_r1	Abs_t1	Abs_t2	neck_flexion	neck_bending	neck_rotation	arm_flex_r	arm_add_r	arm_rot_r	elbow_flex_r	pro_sup_r	wrist_flex_r	wrist_dev_r	arm_flex_l	arm_add_l	arm_rot_l	elbow_flex_l	pro_sup_l	wrist_flex_l	wrist_dev_l
2.711864	-4.873005	-3.435556	89.066904	0.229248	0.803669	0.796506	8.377587	-5.230066	5.080017	16.403835	0.286301	41.445577	-3.446940	0.000000	8.155517	1.938511	9.728540	12.075699	0.210761	39.384428	-4.078781	0.000000	0.142827	-0.553241	-0.460875	0.265244	-0.735810	-0.489679	0.234651	-1.345150	-0.489679	0.163237	-1.345150	-0.403265	0.132629	-1.128169	-0.374461	0.081611	-0.856970	-0.345656	1.020199	-6.258372	-2.563247	0.000000	0.000000	14.192116	4.663934	2.822690	345.204654	-64.772770	389.323761	9.848980	14.781878	-11.441730	4.640171	375.788048	-66.385442	453.736685	5.490893	20.828324	-13.542034	-0.958363
2.728814	-5.068762	-3.875907	89.041597	0.228284	0.801110	0.799223	9.334151	-5.537504	4.554845	17.044838	0.297489	41.985396	-2.771473	0.000000	9.180590	2.192395	9.008573	12.794436	0.223305	40.084075	-3.107373	0.000000	0.153474	-0.546762	-0.476632	0.285016	-0.727193	-0.506421	0.252142	-1.329397	-0.506421	0.175405	-1.329397	-0.417053	0.142516	-1.114957	-0.387263	0.087695	-0.846934	-0.357474	1.096247	-6.185080	-2.650881	0.000000	0.000000	15.769764	3.718520	2.405695	352.807931	-60.926728	397.324877	9.758550	14.577683	-11.404731	3.968689	384.389121	-60.504262	458.952149	5.854909	14.981003	-12.758941	-3.392898
2.745763	-5.157478	-4.297920	89.029485	0.227194	0.798536	0.801475	10.188048	-5.739785	4.072767	17.595844	0.307105	42.503563	-2.141429	0.000000	10.149136	2.353054	8.476262	13.481844	0.235303	40.875172	-2.194437	0.000000	0.164672	-0.524345	-0.488625	0.305812	-0.697380	-0.519164	0.270539	-1.274894	-0.519164	0.188203	-1.274894	-0.427547	0.152914	-1.069245	-0.397008	0.094093	-0.812211	-0.366469	1.176233	-5.931501	-2.717587	0.000000	0.000000	17.396642	2.825791	2.237326	359.299617	-56.390320	404.836144	9.700581	14.101629	-11.391214	3.122067	390.034586	-53.984134	463.728489	6.160295	10.157063	-11.801472	-5.283387
2.762712	-5.104762	-4.698079	89.026624	0.225968	0.795956	0.803256	10.930912	-5.791188	3.685280	18.050191	0.315035	42.979011	-1.636829	0.000000	11.060091	2.382310	8.136674	14.153898	0.247032	41.752982	-1.358922	0.000000	0.176204	-0.481032	-0.496517	0.327229	-0.639772	-0.527550	0.289486	-1.169581	-0.527550	0.201384	-1.169581	-0.434453	0.163623	-0.980920	-0.403420	0.100683	-0.745118	-0.372388	1.258610	-5.441529	-2.761481	0.000000	0.000000	19.019537	2.014716	2.418937	364.365933	-51.264013	411.383345	9.743056	13.723489	-11.394844	2.013722	392.374720	-47.081824	467.470559	6.480628	6.821104	-10.714798	-6.639673
2.779661	-4.935338	-5.063459	89.025263	0.224677	0.793446	0.804586	11.557758	-5.728278	3.258939	18.417401	0.321444	43.454694	-1.090113	0.000000	11.890732	2.296693	7.823259	14.794457	0.258212	42.713878	-0.409021	0.000000	0.186208	-0.421684	-0.504758	0.345808	-0.560839	-0.536305	0.305922	-1.025282	-0.536305	0.212818	-1.025282	-0.441663	0.172913	-0.859897	-0.410116	0.106399	-0.653188	-0.378568	1.330068	-4.770170	-2.807310	0.000000	0.000000	20.600120	1.376473	2.975050	367.905054	-45.808051	417.939083	9.804291	12.875070	-11.307847	0.656473	391.301142	-40.034263	469.857710	6.721838	5.002121	-9.627971	-7.446525
2.796610	-4.666604	-5.394754	89.012500	0.223404	0.791054	0.805507	12.078131	-5.559159	2.865711	18.700998	0.326394	43.923360	-0.591830	0.000000	12.628173	2.111934	7.641425	15.380318	0.268437	43.671782	0.473177	0.000000	0.195225	-0.350363	-0.511753	0.362551	-0.465983	-0.543737	0.320734	-0.851874	-0.543737	0.223122	-0.851874	-0.447784	0.181285	-0.714461	-0.415799	0.111551	-0.542713	-0.383815	1.394469	-3.963381	-2.846215	0.000000	0.000000	22.117254	0.967778	3.852405	370.073235	-40.208226	423.939458	9.896908	12.121614	-11.052344	-0.901764	386.749125	-33.209311	470.177549	6.864082	4.532641	-8.750293	-7.843053
2.813559	-4.305939	-5.689146	88.955342	0.222136	0.788853	0.806058	12.504890	-5.296254	2.478287	18.908991	0.330024	44.387640	-0.073760	0.000000	13.258039	1.831212	7.538784	15.888754	0.277311	44.598465	1.304596	0.000000	0.203271	-0.267992	-0.512642	0.377494	-0.356429	-0.544682	0.333953	-0.651595	-0.544682	0.232318	-0.651595	-0.448562	0.188757	-0.546488	-0.416522	0.116149	-0.415119	-0.384482	1.451942	-3.031573	-2.851163	0.000000	0.000000	23.548724	0.750715	4.928338	370.933746	-34.758028	429.779039	10.027141	10.977429	-10.590518	-2.598382	381.462070	-26.943120	470.137530	6.826796	5.042787	-8.366622	-8.223730
2.830508	-3.886275	-5.949837	88.853348	0.220923	0.786900	0.806294	12.853009	-4.966403	2.124573	19.053249	0.332542	44.837357	0.438483	0.000000	13.776821	1.492354	7.565924	16.301215	0.284510	45.426790	1.976198	0.000000	0.211190	-0.180256	-0.508335	0.392202	-0.239741	-0.540106	0.346965	-0.438275	-0.540106	0.241370	-0.438275	-0.444793	0.196111	-0.367579	-0.413022	0.120674	-0.279217	-0.381251	1.508512	-2.039097	-2.827208	0.000000	0.000000	24.874177	0.735823	6.077417	371.019052	-29.658610	435.524196	10.145191	9.740621	-9.911243	-4.304771	378.289919	-21.430144	472.916775	6.671455	5.320161	-8.432823	-8.858545
